# xmcd
#
# Track frame offsets: 
#        150
#        26860
#        47995
#        77485
#        99190
#        125755
#        141655
#        162910
#        184043
#        208563
#        229605
#
# Disc length: 3372 seconds
#
# Revision: 0
# Processed by: cddbd v1.5.2PL0 Copyright (c) Steve Scherf et al.
# Submitted via: ExactAudioCopy v0.99pb4
#
DISCID=950d2a0b
DTITLE=Tommy Lepson and the Lazy Boys - Live and Durty
DYEAR=1994
DGENRE=Blues
TTITLE0=Tangled And Dark
TTITLE1=River Of Live
TTITLE2=I Can't Stand The Rain
TTITLE3=Sound Of The Tone
TTITLE4=When Something's Wrong With My Baby
TTITLE5=Tell The Truth
TTITLE6=Precious
TTITLE7=Slip Away
TTITLE8=Yellow Moon
TTITLE9=Same Old Blues
TTITLE10=Signed, Sealed, Delivered
EXTD=
EXTT0=
EXTT1=
EXTT2=
EXTT3=
EXTT4=
EXTT5=
EXTT6=
EXTT7=
EXTT8=
EXTT9=
EXTT10=
PLAYORDER=
